<?xml version="1.0" standalone="no"?>
<!DOCTYPE svg PUBLIC "-//W3C//DTD SVG 20010904//EN"
 "http://www.w3.org/TR/2001/REC-SVG-20010904/DTD/svg10.dtd">
<svg version="1.0" xmlns="http://www.w3.org/2000/svg" width="340.000000pt" height="234.000000pt"
    viewBox="0 0 340.000000 234.000000" preserveAspectRatio="xMidYMid meet">

    <g transform="translate(0.000000,234.000000) scale(0.100000,-0.100000)" fill="#000000" stroke="none">
        <path d="M396 1991 c-5 -7 73 -124 184 -276 16 -22 88 -123 160 -225 72 -102
153 -216 180 -255 27 -38 102 -144 166 -235 222 -314 252 -356 350 -495 55
-77 137 -193 183 -258 46 -64 87 -117 91 -117 7 0 90 107 246 320 39 52 109
148 157 213 48 64 126 170 174 235 48 64 118 160 157 212 38 52 108 147 155
210 92 125 128 174 306 415 64 88 130 177 146 197 58 74 180 68 -1310 68 -759
0 -1342 -4 -1345 -9z m467 -51 c45 -2 -96 -310 -143 -310 -20 0 -224 286 -217
305 4 10 42 12 179 9 95 -2 176 -3 181 -4z m277 -6 c14 -14 -7 -77 -71 -214
-84 -177 -187 -338 -204 -318 -29 35 -125 180 -125 188 0 6 17 34 39 63 48 65
98 170 107 226 4 23 13 48 20 56 17 16 217 16 234 -1z m337 4 c14 -11 6 -39
-41 -142 -81 -177 -249 -443 -345 -547 -52 -57 -60 -62 -75 -50 -24 20 -116
153 -116 168 0 7 20 43 44 80 94 148 204 367 221 441 12 58 22 62 168 61 73
-1 137 -6 144 -11z m204 -28 c10 -47 23 -541 16 -571 -3 -13 -21 -33 -39 -43
-18 -10 -69 -41 -113 -69 -113 -71 -261 -165 -323 -205 -63 -40 -62 -41 -137
68 l-48 69 60 64 c127 136 335 476 398 652 28 75 29 76 109 73 l70 -3 7 -35z
m226 32 c7 -4 19 -26 27 -47 19 -55 70 -159 109 -225 18 -30 41 -70 52 -89 35
-59 205 -294 256 -353 27 -31 49 -64 49 -73 0 -18 -96 -155 -109 -155 -7 0
-388 218 -505 289 l-61 36 -6 300 c-5 198 -3 304 3 313 12 13 164 17 185 4z
m354 -6 c8 -6 23 -27 33 -46 33 -61 166 -261 237 -358 38 -50 69 -99 69 -108
0 -21 -159 -234 -174 -234 -14 0 -74 68 -150 170 -55 74 -216 315 -216 324 0
3 -13 27 -28 53 -38 65 -84 183 -78 199 4 11 37 13 150 12 84 -1 150 -6 157
-12z m400 4 c4 0 22 -24 40 -52 19 -29 56 -77 83 -105 l49 -53 -18 -27 c-45
-69 -178 -243 -185 -243 -15 0 -46 38 -129 155 -102 143 -204 311 -197 323 4
8 120 8 357 2z m313 -11 c-2 -20 -112 -169 -126 -169 -25 0 -153 163 -142 181
3 5 64 8 137 6 113 -2 132 -4 131 -18z m-1190 -669 c39 -22 92 -53 117 -68 26
-15 117 -67 203 -116 116 -67 156 -95 156 -109 0 -11 -19 -46 -42 -79 l-43
-59 -130 8 c-265 16 -598 6 -735 -22 -22 -5 -32 4 -80 71 -63 89 -74 69 90
171 162 102 249 157 320 202 36 22 67 41 69 41 2 0 36 -18 75 -40z m349 -459
c6 -6 -10 -37 -49 -91 -32 -45 -62 -84 -67 -87 -4 -2 -83 -4 -175 -4 -150 1
-231 -5 -358 -25 l-41 -6 -67 92 c-36 51 -66 97 -66 101 0 8 107 27 190 33
107 8 623 -3 633 -13z m-199 -207 c25 -4 46 -11 46 -15 0 -19 -141 -199 -158
-201 -9 -1 -42 -2 -72 -3 -30 -1 -75 -5 -100 -9 l-45 -8 -62 86 c-79 109 -81
118 -23 129 100 19 338 31 414 21z m-134 -256 c0 -16 -71 -110 -87 -115 -11
-4 -73 76 -73 95 0 17 45 31 103 31 39 1 57 -3 57 -11z" />
    </g>
</svg>
